<svg xmlns="http://www.w3.org/2000/svg" width="48.002" height="45.866" viewBox="0 0 48.002 45.866">
  <g>
    <path d="M47.954,40.028l-4.849-12.6a.728.728,0,0,0-.679-.467H36.748l1.78-7.451a.728.728,0,0,0-.708-.9H35.638V17.73a4.129,4.129,0,0,0-2.46-3.711,18.758,18.758,0,0,0-2.65-1c-.391-.115-.785-.225-1.177-.316a2.674,2.674,0,0,1-1.985-1.92c0-.021-.007-.051-.011-.08a6.852,6.852,0,0,0,2.1-5.049A5.318,5.318,0,0,0,24,0a5.318,5.318,0,0,0-5.455,5.656A6.86,6.86,0,0,0,20.64,10.7c-.007.059-.014.111-.022.15a2.559,2.559,0,0,1-1.967,1.854c-.4.094-.792.2-1.185.32a18.391,18.391,0,0,0-2.646,1,4.124,4.124,0,0,0-2.457,3.707v.881H10.182a.727.727,0,0,0-.707.9l1.779,7.451H5.576a.729.729,0,0,0-.679.467L.048,40.028a.727.727,0,0,0,.68.988H4.011l.853,4.266a.727.727,0,0,0,.713.584H42.425a.725.725,0,0,0,.713-.584l.853-4.266h3.283a.728.728,0,0,0,.68-.988ZM20,5.655a3.845,3.845,0,0,1,4-4.2,3.845,3.845,0,0,1,4,4.2c0,2.736-1.794,4.963-4,4.963S20,8.391,20,5.655Zm1.9,5.922a4.691,4.691,0,0,0,4.2,0,3.923,3.923,0,0,0,1.584,1.947C27.315,14.161,25.942,14.9,24,14.9c-1.963,0-3.313-.717-3.682-1.354A3.874,3.874,0,0,0,21.9,11.577Zm-8.082,6.15a2.688,2.688,0,0,1,1.625-2.393,17.027,17.027,0,0,1,2.439-.916c.367-.111.729-.211,1.108-.3h0c.637,1.3,2.6,2.236,5.009,2.236s4.365-.934,5.006-2.238q.56.135,1.105.3a17.019,17.019,0,0,1,2.444.918,2.691,2.691,0,0,1,1.627,2.4v.879H13.821Zm-2.714,2.336H36.9L34.338,30.792H13.668ZM28.581,32.245l-.811,3.4H20.234l-.811-3.4Zm13.25,12.166H6.175l-.679-3.4H42.509ZM43.4,39.563H1.79L6.079,28.411h5.526l.782,3.275a.727.727,0,0,0,.707.559h4.835l.811,3.4H15.761a.728.728,0,1,0,0,1.456H32.246a.728.728,0,0,0,0-1.456H29.267l.811-3.4h4.835a.728.728,0,0,0,.708-.559l.782-3.275h5.525l4.289,11.152Z" fill="#1a171b"/>
    <path d="M24,28.092a2.942,2.942,0,0,0,3.152-2.666A2.942,2.942,0,0,0,24,22.76a2.941,2.941,0,0,0-3.151,2.666A2.941,2.941,0,0,0,24,28.092Zm0-3.879c.92,0,1.7.555,1.7,1.213s-.777,1.213-1.7,1.213-1.7-.557-1.7-1.213S23.083,24.213,24,24.213Z" fill="#1a171b"/>
  </g>
</svg>
