<svg xmlns="http://www.w3.org/2000/svg" viewBox="0 0 48 48"><defs><style>.cls-1{fill:#201602;}</style></defs><title>Asset 5ldpi</title><g id="Layer_2" data-name="Layer 2"><g id="layer_1-2" data-name="layer 1"><rect class="cls-1" x="43" y="16" width="2" height="16"/><rect class="cls-1" x="26.03" y="38.5" width="15.93" height="2" transform="translate(-13.21 17.42) rotate(-24.21)"/><rect class="cls-1" x="13" y="31.53" width="2" height="15.93" transform="translate(-27.77 36.06) rotate(-65.77)"/><rect class="cls-1" x="3" y="16" width="2" height="16"/><rect class="cls-1" x="6.03" y="7.5" width="15.93" height="2" transform="translate(-2.25 6.49) rotate(-24.21)"/><rect class="cls-1" x="33" y="0.53" width="2" height="15.93" transform="translate(12.3 36.02) rotate(-65.77)"/><path class="cls-1" d="M24,8a4,4,0,1,1,4-4A4,4,0,0,1,24,8Zm0-6a2,2,0,1,0,2,2A2,2,0,0,0,24,2Z"/><path class="cls-1" d="M24,48a4,4,0,1,1,4-4A4,4,0,0,1,24,48Zm0-6a2,2,0,1,0,2,2A2,2,0,0,0,24,42Z"/><path class="cls-1" d="M4,17a4,4,0,1,1,4-4A4,4,0,0,1,4,17Zm0-6a2,2,0,1,0,2,2A2,2,0,0,0,4,11Z"/><path class="cls-1" d="M4,39a4,4,0,1,1,4-4A4,4,0,0,1,4,39Zm0-6a2,2,0,1,0,2,2A2,2,0,0,0,4,33Z"/><path class="cls-1" d="M44,17a4,4,0,1,1,4-4A4,4,0,0,1,44,17Zm0-6a2,2,0,1,0,2,2A2,2,0,0,0,44,11Z"/><path class="cls-1" d="M44,39a4,4,0,1,1,4-4A4,4,0,0,1,44,39Zm0-6a2,2,0,1,0,2,2A2,2,0,0,0,44,33Z"/><rect class="cls-1" x="6.02" y="30.19" width="9.82" height="2" transform="translate(-13.67 9.12) rotate(-28.79)"/><rect class="cls-1" x="36.07" y="26.28" width="2" height="9.82" transform="translate(-8.12 48.64) rotate(-61.19)"/><rect class="cls-1" x="32.16" y="15.81" width="9.82" height="2" transform="translate(-3.51 19.97) rotate(-28.84)"/><rect class="cls-1" x="9.93" y="11.9" width="2" height="9.82" transform="translate(-9.07 18.29) rotate(-61.19)"/><path class="cls-1" d="M24,35A11,11,0,1,1,35,24,11,11,0,0,1,24,35Zm0-20a9,9,0,1,0,9,9A9,9,0,0,0,24,15Z"/><path class="cls-1" d="M24,27c-2.21,0-4-2.24-4-5a3.71,3.71,0,0,1,4-4,3.71,3.71,0,0,1,4,4C28,24.76,26.21,27,24,27Zm0-7c-1.79,0-2,1.14-2,2,0,1.6.93,3,2,3s2-1.4,2-3C26,21.14,25.79,20,24,20Z"/><path class="cls-1" d="M31,32H29V28.69a1,1,0,0,0-.83-1L24,27l-4.17.7a1,1,0,0,0-.83,1V32H17V28.69a3,3,0,0,1,2.51-3L23.84,25a1.71,1.71,0,0,1,.32,0l4.33.73a3,3,0,0,1,2.51,3Z"/><rect class="cls-1" x="23" y="34" width="2" height="7"/><rect class="cls-1" x="23" y="7" width="2" height="7"/></g></g></svg>