<?xml version="1.0" encoding="utf-8"?>

<!DOCTYPE svg PUBLIC "-//W3C//DTD SVG 1.1//EN" "http://www.w3.org/Graphics/SVG/1.1/DTD/svg11.dtd">
<!-- Uploaded to: SVG Repo, www.svgrepo.com, Generator: SVG Repo Mixer Tools -->
<svg version="1.1" id="_x32_" xmlns="http://www.w3.org/2000/svg" xmlns:xlink="http://www.w3.org/1999/xlink" 
	 viewBox="0 0 512 512"  xml:space="preserve">
<style type="text/css">
	.st0{fill:#000000;}
</style>
<g>
	<path class="st0" d="M0,145.217v336.005h512V145.217H0z M480,252.929H304.005v32H480v164.292H32V284.93h176.003v-32H32v-75.712H480
		V252.929z"/>
	<path class="st0" d="M215.558,79.528c10.406-10.375,24.602-16.743,40.446-16.75c15.844,0.007,30.04,6.375,40.446,16.75
		c10.374,10.398,16.742,24.594,16.75,40.454h32.001c-0.008-49.282-39.93-89.198-89.197-89.205
		c-49.266,0.007-89.188,39.922-89.196,89.205h32C198.816,104.122,205.183,89.926,215.558,79.528z"/>
	<rect x="232.004" y="240.452" class="st0" width="48.001" height="64.001"/>
</g>
</svg>