<?xml version="1.0" encoding="utf-8"?>
<!-- Generator: Adobe Illustrator 16.0.0, SVG Export Plug-In . SVG Version: 6.00 Build 0)  -->
<!DOCTYPE svg PUBLIC "-//W3C//DTD SVG 1.1//EN" "http://www.w3.org/Graphics/SVG/1.1/DTD/svg11.dtd">
<svg version="1.1" id="Layer_1" xmlns="http://www.w3.org/2000/svg" xmlns:xlink="http://www.w3.org/1999/xlink" x="0px" y="0px"
	 width="128px" height="128px" viewBox="0 0 128 128" enable-background="new 0 0 128 128" xml:space="preserve">
<g>
	<g>
		<g>
			<path fill="#282D33" d="M58.8,128c-31.743,0-57.567-25.56-57.567-56.977c0-31.415,25.824-56.973,57.567-56.973v4
				c-29.537,0-53.567,23.764-53.567,52.973C5.232,100.234,29.263,124,58.8,124c29.534,0,53.562-23.766,53.562-52.977h4
				C116.361,102.44,90.539,128,58.8,128z"/>
		</g>
		<g>
			<path fill="#282D33" d="M58.801,128c-18.828,0-34.146-25.56-34.146-56.977c0-31.415,15.318-56.973,34.146-56.973v4
				c-16.623,0-30.146,23.764-30.146,52.973c0,29.211,13.523,52.977,30.146,52.977c12.952,0,24.763-15.209,28.72-36.986l3.936,0.715
				C87.079,111.816,73.955,128,58.801,128z"/>
		</g>
		<g>
			<path fill="#282D33" d="M58.801,128h-2V53.127h4v70.837c28.612-1.043,51.563-24.391,51.563-52.94
				c0-2.927-0.241-5.842-0.718-8.664l3.943-0.666c0.514,3.042,0.774,6.18,0.774,9.33C116.363,102.44,90.541,128,58.801,128z"/>
		</g>
		<g>
			<path fill="#282D33" d="M112.13,92.398H5.468l-0.49-1.289c-2.484-6.527-3.744-13.286-3.744-20.086
				c0-6.806,1.262-13.568,3.749-20.097l0.491-1.288h53.06v4H8.248C6.247,59.31,5.233,65.151,5.233,71.023
				c0,5.867,1.013,11.705,3.011,17.375h101.107c1.998-5.68,3.01-11.519,3.01-17.375h4c0,6.788-1.259,13.546-3.741,20.085
				L112.13,92.398z"/>
		</g>
	</g>
	<g>
		<g>
			<path fill="#282D33" d="M89.014,89.717l-1.29-1.089c-1.489-1.256-36.478-31.004-36.478-51.253C51.246,16.766,68.188,0,89.014,0
				c20.817,0,37.754,16.766,37.754,37.375c0,20.248-34.976,49.997-36.464,51.253L89.014,89.717z M89.014,4
				C70.395,4,55.246,18.972,55.246,37.375c0,16.358,27.436,41.493,33.768,47.075c6.329-5.582,33.754-30.717,33.754-47.075
				C122.768,18.972,107.626,4,89.014,4z M89.014,56.938c-10.901,0-19.771-8.776-19.771-19.563c0-10.779,8.869-19.548,19.771-19.548
				c10.88,0,19.73,8.769,19.73,19.548C108.744,48.162,99.894,56.938,89.014,56.938z M89.014,21.827
				c-8.696,0-15.771,6.975-15.771,15.548c0,8.582,7.074,15.563,15.771,15.563c8.674,0,15.73-6.981,15.73-15.563
				C104.744,28.802,97.688,21.827,89.014,21.827z"/>
		</g>
		<g>
			<path fill="#282D33" d="M89.014,56.938c-10.901,0-19.771-8.776-19.771-19.563c0-10.779,8.869-19.548,19.771-19.548
				c10.88,0,19.73,8.769,19.73,19.548C108.744,48.162,99.894,56.938,89.014,56.938z M89.014,21.827
				c-8.696,0-15.771,6.975-15.771,15.548c0,8.582,7.074,15.563,15.771,15.563c8.674,0,15.73-6.981,15.73-15.563
				C104.744,28.802,97.688,21.827,89.014,21.827z"/>
		</g>
	</g>
</g>
</svg>
