<svg id="Layer_1" data-name="Layer 1" xmlns="http://www.w3.org/2000/svg" viewBox="0 0 48 48"><title>20. Heap Money</title><path d="M45.5,33.36H2.5a1,1,0,0,1-1-1V29a1,1,0,0,1,1-1h43a1,1,0,0,1,1,1v3.39A1,1,0,0,1,45.5,33.36Zm-42-2h41V30H3.5Z"/><path d="M45.5,36.74H2.5a1,1,0,0,1-1-1V32.36a1,1,0,0,1,1-1h43a1,1,0,0,1,1,1v3.38A1,1,0,0,1,45.5,36.74Zm-42-2h41V33.36H3.5Z"/><path d="M45.5,40.12H2.5a1,1,0,0,1-1-1V35.74a1,1,0,0,1,1-1h43a1,1,0,0,1,1,1v3.38A1,1,0,0,1,45.5,40.12Zm-42-2h41V36.74H3.5Z"/><path d="M45.5,30H2.5a1,1,0,0,1-1-1V8.88a1,1,0,0,1,1-1h43a1,1,0,0,1,1,1V29A1,1,0,0,1,45.5,30Zm-42-2h41V9.88H3.5Z"/><path d="M42.5,17.31a.75.75,0,0,1-.26,0c-2.91-.79-4.75-2.64-5.19-5.2a1,1,0,0,1,1-1.17H42.5a1,1,0,0,1,1,1v4.41a1,1,0,0,1-.39.79A1,1,0,0,1,42.5,17.31ZM39.4,12.9a4.5,4.5,0,0,0,2.1,2v-2Z"/><path d="M42.5,27H38a1,1,0,0,1-1-1.17c.44-2.56,2.28-4.41,5.18-5.21a1,1,0,0,1,.88.17,1,1,0,0,1,.39.79V26A1,1,0,0,1,42.5,27Zm-3.1-2h2.1V23A4.5,4.5,0,0,0,39.4,25Z"/><path d="M10,27H5.49a1,1,0,0,1-1-1V21.54a1,1,0,0,1,1.27-1c2.9.8,4.74,2.65,5.18,5.21A1,1,0,0,1,10,27ZM6.49,25h2.1a4.46,4.46,0,0,0-2.1-2Z"/><path d="M5.49,17.31a1,1,0,0,1-1-1V11.9a1,1,0,0,1,1-1H10a1,1,0,0,1,.76.35,1,1,0,0,1,.22.81c-.44,2.57-2.28,4.42-5.19,5.21A.75.75,0,0,1,5.49,17.31Zm1-4.41v2a4.46,4.46,0,0,0,2.1-2Z"/><path d="M24,27.05a8.13,8.13,0,1,1,8.13-8.12A8.13,8.13,0,0,1,24,27.05ZM24,12.8a6.13,6.13,0,1,0,6.13,6.13A6.14,6.14,0,0,0,24,12.8Z"/><path d="M22.43,23a1,1,0,0,1-1-1V17.38a2.57,2.57,0,0,1,5.14,0,1,1,0,1,1-2,0,.57.57,0,1,0-1.14,0V22A1,1,0,0,1,22.43,23Z"/><path d="M24.49,20.42H21.18a1,1,0,0,1,0-2h3.31a1,1,0,0,1,0,2Z"/><path d="M25.57,23H21.18a1,1,0,0,1,0-2h4.39a1,1,0,0,1,0,2Z"/></svg>