<svg xmlns="http://www.w3.org/2000/svg" viewBox="0 0 256 256"><defs><style>.cls-1{fill:#1d384d;}</style></defs><title>money</title><g id="icons_without_caption" data-name="icons without caption"><g id="MONEY"><path class="cls-1" d="M217,187.55h-4v4.82H196a19.28,19.28,0,0,1,1.15-4.82h-4.23a22.45,22.45,0,0,0-.92,4.82H64a22.45,22.45,0,0,0-.92-4.82H58.9A19.27,19.27,0,0,1,60,192.37H43v-4.82H39v8.82H217Z"/><path class="cls-1" d="M213,178.31v4.83h0v-4.83Z"/><path class="cls-1" d="M213,178.31v4.83H196a18.47,18.47,0,0,1,.43-2.49,20.41,20.41,0,0,1,.72-2.34h-4.22a22.78,22.78,0,0,0-1,5.24H64.08a22.77,22.77,0,0,0-1-5.24H58.9a22.3,22.3,0,0,1,.72,2.32,20.86,20.86,0,0,1,.43,2.51H43v-4.83H39v9.24H217v-9.24Z"/><path class="cls-1" d="M213,169.08v4.83H196a19.52,19.52,0,0,1,1.15-4.83h-4.22a22.59,22.59,0,0,0-1,5.23H64.08a22.59,22.59,0,0,0-1-5.23H58.9a22.3,22.3,0,0,1,.72,2.32,20.53,20.53,0,0,1,.43,2.51H43v-4.83H39v9.23H217v-9.23Z"/><path class="cls-1" d="M213,169.08v4.83h0v-4.83Z"/><path class="cls-1" d="M213,159.84v4.83H196a20.18,20.18,0,0,1,.42-2.47h0a22.86,22.86,0,0,1,.73-2.35h-4.22a22.78,22.78,0,0,0-1,5.24H64.1a22.78,22.78,0,0,0-1-5.24H58.9a19.71,19.71,0,0,1,.72,2.33,18.91,18.91,0,0,1,.43,2.5H43v-4.83H39v9.24H217v-9.24Z"/><path class="cls-1" d="M213,150.61v4.83H196a18.46,18.46,0,0,1,.43-2.49,20.42,20.42,0,0,1,.72-2.34h-4.22a22.6,22.6,0,0,0-1,5.23H64.1a22.59,22.59,0,0,0-1-5.23H58.9a22.32,22.32,0,0,1,.72,2.32,20.86,20.86,0,0,1,.43,2.51H43v-4.83H39v9.23H217v-9.23Z"/><path class="cls-1" d="M213,150.61v4.83h0v-4.83Z"/><path class="cls-1" d="M217,84.78V59.63H39v91H217v-.4h0V125.06h0V84.78Zm-4-21.15v17a19,19,0,0,1-13.44-7.81,18.23,18.23,0,0,1-2.24-4A18.68,18.68,0,0,1,196,63.63Zm-170,0H60a18.69,18.69,0,0,1-1.32,5.23,19,19,0,0,1-2.22,4A19.17,19.17,0,0,1,43,80.68Zm0,82.58v-17A19.11,19.11,0,0,1,59.62,143.7a20.53,20.53,0,0,1,.43,2.51Zm21.1.4A23.11,23.11,0,0,0,52.28,128a21.93,21.93,0,0,0-5.07-2.1,22.52,22.52,0,0,0-4.21-.76V84.69A23.23,23.23,0,0,0,57.26,78.1a21.22,21.22,0,0,0,2.36-2.73,21.45,21.45,0,0,0,1.62-2.51,22.35,22.35,0,0,0,1.76-4,22.7,22.7,0,0,0,1.07-5.23H191.95A22.7,22.7,0,0,0,193,68.86a22.36,22.36,0,0,0,1.76,4,20.34,20.34,0,0,0,1.61,2.49,22.18,22.18,0,0,0,2.37,2.75,23.41,23.41,0,0,0,5.46,4A22.74,22.74,0,0,0,213,84.68v40.48a22.61,22.61,0,0,0-9.22,2.85,23.11,23.11,0,0,0-11.82,18.6Zm131.86-.4a18.46,18.46,0,0,1,.43-2.49,19.27,19.27,0,0,1,12.39-13.63,18.65,18.65,0,0,1,4.18-.92v17Z"/><path class="cls-1" d="M154.89,100.56a25.42,25.42,0,0,0-1-4,25.75,25.75,0,0,0-2.38-5.23,27.28,27.28,0,0,0-47.07,0,25.75,25.75,0,0,0-2.38,5.23,25.42,25.42,0,0,0-1,4,26.39,26.39,0,0,0-.39,4.56c0,.23,0,.46,0,.68a24.35,24.35,0,0,0,.38,3.94.13.13,0,0,0,0,.06,25.59,25.59,0,0,0,1.2,4.55,26,26,0,0,0,2.18,4.62c.16.29.33.56.52.84s.36.57.56.84c.47.68,1,1.33,1.49,2,.28.34.57.66.86,1a26,26,0,0,0,2.92,2.73,24.37,24.37,0,0,0,2.64,1.89,25,25,0,0,0,4.24,2.18,22.19,22.19,0,0,0,2.91,1,1.3,1.3,0,0,0,.28.08,2,2,0,0,0,.33.09,0,0,0,0,0,0,0h.08a26.16,26.16,0,0,0,5.56.8c.36,0,.73,0,1.1,0s1,0,1.56-.05.83,0,1.25-.09a24.39,24.39,0,0,0,2.56-.4c.49-.09,1-.2,1.45-.32.82-.22,1.63-.47,2.42-.76.35-.12.69-.25,1-.4a25.42,25.42,0,0,0,4.25-2.18,24.39,24.39,0,0,0,2.64-1.89,26.87,26.87,0,0,0,2.92-2.73c.29-.32.58-.64.86-1,.52-.63,1-1.28,1.49-2,.2-.27.39-.56.56-.84s.36-.55.52-.84a26,26,0,0,0,2.18-4.62,25.57,25.57,0,0,0,1.2-4.55.13.13,0,0,0,0-.06,24.35,24.35,0,0,0,.38-3.94c0-.22,0-.45,0-.68A26.39,26.39,0,0,0,154.89,100.56Zm-3.63,5.24a21.14,21.14,0,0,1-.29,3.1q-.06.42-.15.84s0,0,0,.06a23.49,23.49,0,0,1-1.44,4.56c-.14.32-.29.65-.45,1A23.31,23.31,0,0,1,146.7,119a21.61,21.61,0,0,1-1.56,1.88,23.42,23.42,0,0,1-3,2.74,23,23,0,0,1-3.91,2.43c-.59.29-1.2.56-1.82.8a21.79,21.79,0,0,1-3.79,1.12q-.8.17-1.62.27c-.33.05-.67.08-1,.11a3.74,3.74,0,0,1-.47,0q-.78.06-1.56.06c-.37,0-.73,0-1.1,0-.65,0-1.3-.08-1.94-.17s-1.31-.2-2-.34a21.87,21.87,0,0,1-3.66-1.13q-.82-.33-1.62-.72a23.24,23.24,0,0,1-6.88-5.17,21.65,21.65,0,0,1-1.56-1.88,23.3,23.3,0,0,1-2.22-3.64c-.16-.32-.31-.65-.45-1a23.5,23.5,0,0,1-1.44-4.56s0,0,0-.06q-.09-.42-.15-.84a21.11,21.11,0,0,1-.29-3.1c0-.23,0-.45,0-.68a22.9,22.9,0,0,1,.45-4.56c.12-.59.26-1.18.42-1.75a21.28,21.28,0,0,1,.76-2.25A23.54,23.54,0,0,1,113,87.33a23.24,23.24,0,0,1,30,0,23.54,23.54,0,0,1,6.65,9.23,21.21,21.21,0,0,1,.76,2.25c.16.57.3,1.16.42,1.75a22.89,22.89,0,0,1,.45,4.56C151.28,105.35,151.28,105.57,151.26,105.8Z"/><path class="cls-1" d="M137,109.8a5.79,5.79,0,0,0-2.11-3.2c-.13-.09-.26-.19-.39-.27a5.72,5.72,0,0,0-.85-.53,28.26,28.26,0,0,0-5-2,18.34,18.34,0,0,1-4.1-1.71,3.58,3.58,0,0,1-1.3-1.36.9.9,0,0,1-.11-.22,3.06,3.06,0,0,1-.23-1.2,3.19,3.19,0,0,1,1.49-2.8l0,0a5.86,5.86,0,0,1,3.2-.81,10.71,10.71,0,0,1,3.78.79h.05s0,0,.06,0a12.42,12.42,0,0,1,2.82,1.52l.69-.86.54-.66.77-1a16.32,16.32,0,0,0-6.78-2.9V87.5h-2.66v5c-3.49.16-5.87,1.72-6.92,4a5.57,5.57,0,0,0-.4,1.08,7.22,7.22,0,0,0-.25,1.94,6.18,6.18,0,0,0,.07,1,5.39,5.39,0,0,0,1.79,3.48,9.87,9.87,0,0,0,2.91,1.76h0l.15.06c.83.36,1.72.67,2.63,1l.75.24c.69.22,1.32.42,1.91.64a7,7,0,0,1,3.37,2.08,2,2,0,0,1,.21.3,3.77,3.77,0,0,1,.48,1.94c0,.14,0,.28,0,.42a3.33,3.33,0,0,1-.95,2.06,2.68,2.68,0,0,1-.62.53.62.62,0,0,1-.17.11,5.59,5.59,0,0,1-2.3.77,7.12,7.12,0,0,1-1,.07,8.86,8.86,0,0,1-1.61-.15,10.26,10.26,0,0,1-2.57-.78l-.11,0a11.75,11.75,0,0,1-2.91-1.88c-.17-.14-.32-.29-.48-.44l-.09.11-2,2.38c.28.27.57.53.87.77a.44.44,0,0,0,.11.09,13.64,13.64,0,0,0,3.19,2,13.08,13.08,0,0,0,2.7.87c.42.09.85.16,1.28.21V124h2.66v-4.83a10.75,10.75,0,0,0,1.32-.18,8.51,8.51,0,0,0,1.58-.43,7.27,7.27,0,0,0,3.14-2.07,4.5,4.5,0,0,0,.4-.49,7,7,0,0,0,1.26-4.14c0-.13,0-.25,0-.37A8.13,8.13,0,0,0,137,109.8Z"/></g></g></svg>